<svg id="Layer_1" data-name="Layer 1" xmlns="http://www.w3.org/2000/svg" viewBox="0 0 85.77 50"><defs><style>.cls-1{fill:#4d4d4d;}.cls-1,.cls-2,.cls-3,.cls-4{fill-rule:evenodd;}.cls-2{fill:#999;}.cls-3{fill:#3fa9a0;}.cls-4{fill:#959595;}</style></defs><path class="cls-1" d="M43.38,16.68a2.93,2.93,0,0,0,1.89-.47,2,2,0,0,0,.53-1.57A2.12,2.12,0,0,0,45.27,13a2.75,2.75,0,0,0-1.89-.5,2.84,2.84,0,0,0-1.86.48A2.05,2.05,0,0,0,41,14.64a2,2,0,0,0,.53,1.54A2.81,2.81,0,0,0,43.38,16.68Zm-.25,9.07a19,19,0,0,1-2.47-.16,10.42,10.42,0,0,1-2.12-.45V22.85a12.06,12.06,0,0,0,2.14.46,15.66,15.66,0,0,0,2.29.17,10.32,10.32,0,0,0,2.27-.17c.46-.11.7-.31.7-.6a.5.5,0,0,0-.31-.5,3.85,3.85,0,0,0-1.28-.13H41.42c-1.92,0-2.88-.71-2.88-2.14a2.1,2.1,0,0,1,.37-1.2,2.38,2.38,0,0,1,1.15-.86,3.23,3.23,0,0,1-1.83-3.13,3.5,3.5,0,0,1,1.29-3,6.46,6.46,0,0,1,3.83-.94,9.83,9.83,0,0,1,1.15.08,9.36,9.36,0,0,1,.94.15h4l-.07,1.92h-1.7a2.4,2.4,0,0,1,.7,1.84,3.49,3.49,0,0,1-1,2.65,4.39,4.39,0,0,1-3.09,1q-.36,0-.69,0l-.67-.08a3.76,3.76,0,0,0-1.14.32.69.69,0,0,0-.47.61c0,.35.31.52.93.52h3a3.84,3.84,0,0,1,2.52.74,2.62,2.62,0,0,1,.88,2.14A2.5,2.5,0,0,1,47.25,25,8.88,8.88,0,0,1,43.13,25.75Zm-17.86-4V11h2.84l.11,1a6.37,6.37,0,0,1,1.67-.88A6,6,0,0,1,32,10.78a4.18,4.18,0,0,1,3.11,1,4.25,4.25,0,0,1,1,3.08v6.9H33V15a2.2,2.2,0,0,0-.44-1.54A2.33,2.33,0,0,0,30.94,13a3.42,3.42,0,0,0-1.41.31,3.71,3.71,0,0,0-1.19.8v7.62ZM16.92,20a4.36,4.36,0,0,0,1.77-.34,3.28,3.28,0,0,0,1.18-.86V17.06h-3.1c-1.2,0-1.8.49-1.8,1.48S15.62,20,16.92,20Zm-.84,2a4.73,4.73,0,0,1-1.89-.38,3.37,3.37,0,0,1-1.41-1.11,3.11,3.11,0,0,1-.53-1.85,3.16,3.16,0,0,1,1.12-2.54,5.07,5.07,0,0,1,3.33-.95h3.17v-.3a1.62,1.62,0,0,0-.55-1.4,4.08,4.08,0,0,0-2.24-.41,11.4,11.4,0,0,0-3.54.56V11.46A9.57,9.57,0,0,1,15.37,11a13.24,13.24,0,0,1,2.35-.19,6.15,6.15,0,0,1,3.75,1,3.65,3.65,0,0,1,1.33,3.16v6.83H20.14l-.15-1a4.53,4.53,0,0,1-1.57.89A7.38,7.38,0,0,1,16.08,22ZM5,22a15.37,15.37,0,0,1-2.62-.21,8.59,8.59,0,0,1-2.1-.59v-2.7a12.67,12.67,0,0,0,2.16.66,10.45,10.45,0,0,0,2.27.25A7,7,0,0,0,7,19.11a1.28,1.28,0,0,0,.75-1.34,1.57,1.57,0,0,0-.32-1.05A2.81,2.81,0,0,0,6.36,16c-.52-.2-1.26-.43-2.21-.69A7.12,7.12,0,0,1,.93,13.75,3.59,3.59,0,0,1,0,11.12,3.64,3.64,0,0,1,1.47,8,7.22,7.22,0,0,1,5.76,6.92a15.57,15.57,0,0,1,2.45.18,11.11,11.11,0,0,1,1.84.44v2.69a11.06,11.06,0,0,0-3.88-.7,6.5,6.5,0,0,0-2.25.31,1.23,1.23,0,0,0-.81,1.28A1.38,1.38,0,0,0,3.4,12a2.66,2.66,0,0,0,1,.61,20.05,20.05,0,0,0,2,.61,9.39,9.39,0,0,1,2.77,1.14,3.63,3.63,0,0,1,1.35,1.49,4.59,4.59,0,0,1,.37,1.89,3.71,3.71,0,0,1-1.45,3.06A7.13,7.13,0,0,1,5,22Z"/><path class="cls-1" d="M50.57,38.17a4.2,4.2,0,0,0,1.77-.34A3.25,3.25,0,0,0,53.52,37v-1.7H50.41c-1.2,0-1.79.49-1.79,1.47S49.27,38.17,50.57,38.17Zm-.84,2a5,5,0,0,1-1.9-.37,3.22,3.22,0,0,1-1.4-1.12,3,3,0,0,1-.54-1.85A3.18,3.18,0,0,1,47,34.31a5,5,0,0,1,3.32-1h3.18v-.29A1.63,1.63,0,0,0,53,31.66a4.13,4.13,0,0,0-2.23-.41,11,11,0,0,0-3.54.57V29.66A9.51,9.51,0,0,1,49,29.18a13.2,13.2,0,0,1,2.35-.2,6.21,6.21,0,0,1,3.76,1,3.69,3.69,0,0,1,1.32,3.16V40H53.79l-.16-1a4.43,4.43,0,0,1-1.57.88A7.31,7.31,0,0,1,49.73,40.19ZM36.73,44a9.16,9.16,0,0,1-1.25-.08,5.15,5.15,0,0,1-1.07-.29V41.44a3.78,3.78,0,0,0,.72.18,4.91,4.91,0,0,0,.67.05,2.16,2.16,0,0,0,1.44-.44,4.67,4.67,0,0,0,1-1.45L33.46,29.21h3.2l3.15,7.3,3.13-7.3h3.18l-4.24,10A16,16,0,0,1,40.6,41.7,5.43,5.43,0,0,1,39,43.37,4.11,4.11,0,0,1,36.73,44ZM26.25,40V29.21h2.83l.14,1.11a9,9,0,0,1,1.8-.83A10.69,10.69,0,0,1,33.14,29V31.3c-.4.06-.85.15-1.33.27s-.95.26-1.39.41a7.56,7.56,0,0,0-1.11.47V40Zm-9.35.23a4.08,4.08,0,0,1-3-1.08A4.32,4.32,0,0,1,12.82,36V29.21h3.06v6.67a2.07,2.07,0,0,0,.52,1.58,2.25,2.25,0,0,0,1.57.48,3.38,3.38,0,0,0,1.46-.31,4.21,4.21,0,0,0,1.15-.8V29.21h3.06V40H20.8l-.11-1a5.89,5.89,0,0,1-1.6.9A6.21,6.21,0,0,1,16.9,40.19ZM5,40.19A16.5,16.5,0,0,1,2.37,40a9.58,9.58,0,0,1-2.1-.59V36.7a12.66,12.66,0,0,0,2.16.65,10.45,10.45,0,0,0,2.27.25A6.76,6.76,0,0,0,7,37.31,1.27,1.27,0,0,0,7.78,36a1.52,1.52,0,0,0-.32-1,2.71,2.71,0,0,0-1.1-.7c-.52-.2-1.26-.43-2.21-.69A7.22,7.22,0,0,1,.93,32,3.63,3.63,0,0,1,0,29.32a3.62,3.62,0,0,1,1.47-3.1,7.15,7.15,0,0,1,4.29-1.09,15.57,15.57,0,0,1,2.45.18,10.28,10.28,0,0,1,1.84.43v2.7a10.84,10.84,0,0,0-3.88-.7,6.79,6.79,0,0,0-2.25.3,1.23,1.23,0,0,0-.81,1.28,1.38,1.38,0,0,0,.29.91,2.54,2.54,0,0,0,1,.61,19.65,19.65,0,0,0,2,.62,9.14,9.14,0,0,1,2.77,1.13,3.65,3.65,0,0,1,1.35,1.5A4.54,4.54,0,0,1,10.91,36,3.71,3.71,0,0,1,9.46,39,7.13,7.13,0,0,1,5,40.19Z"/><path class="cls-2" d="M58.33,30.49V29h.32l.44.91.44-.91h.31v1.51h-.31v-1l-.35.72H59l-.36-.72v1Zm-.95,0V29.23h-.46V29h1.24v.25H57.7v1.26Z"/><path class="cls-3" d="M71.06,17h1a2.32,2.32,0,0,1,1.61.67L76,20a2.3,2.3,0,0,0,1.62.67h1a2.37,2.37,0,0,1,1.62.67l1.71,1.71H78.09a2.29,2.29,0,0,1-1.62-.67ZM68.75,18v1a2.28,2.28,0,0,1-.67,1.61l-2.35,2.36a2.34,2.34,0,0,0-.66,1.62v1a2.29,2.29,0,0,1-.67,1.62l-1.7,1.71,0-3.84a2.37,2.37,0,0,1,.67-1.62Zm-6.08,14.7v-1a2.37,2.37,0,0,1,.67-1.62l2.35-2.36a2.3,2.3,0,0,0,.67-1.61v-1A2.33,2.33,0,0,1,67,23.52l1.71-1.71v3.84a2.24,2.24,0,0,1-.67,1.61Zm5.13-17h-1A2.24,2.24,0,0,1,65.21,15l-2.37-2.35A2.39,2.39,0,0,0,61.23,12h-1a2.24,2.24,0,0,1-1.61-.67l-1.71-1.7,3.84,0a2.33,2.33,0,0,1,1.61.67ZM53.09,9.58h1a2.37,2.37,0,0,1,1.61.67L58,12.6a2.3,2.3,0,0,0,1.62.67h1a2.33,2.33,0,0,1,1.62.67L64,15.65H60.12A2.29,2.29,0,0,1,58.5,15Zm17,5.13v-1a2.29,2.29,0,0,1,.67-1.61l2.35-2.37a2.3,2.3,0,0,0,.67-1.61v-1a2.33,2.33,0,0,1,.67-1.61l1.71-1.71V7.68a2.26,2.26,0,0,1-.67,1.61ZM76.18,0V1a2.26,2.26,0,0,1-.67,1.61L73.16,5a2.39,2.39,0,0,0-.67,1.62v1a2.29,2.29,0,0,1-.67,1.62l-1.7,1.71L70.1,7a2.37,2.37,0,0,1,.67-1.62Zm9.59,23.09h-1a2.29,2.29,0,0,1-1.62-.67l-2.36-2.35a2.39,2.39,0,0,0-1.61-.67h-1a2.26,2.26,0,0,1-1.61-.67L74.9,17h3.84a2.37,2.37,0,0,1,1.62.67Z"/><path class="cls-2" d="M70.1,18l.69.69a2.32,2.32,0,0,1,.67,1.61V23.6a2.27,2.27,0,0,0,.67,1.62l.68.69a2.3,2.3,0,0,1,.67,1.62V30l-2.72-2.71a2.32,2.32,0,0,1-.67-1.62Zm-2.31-1-.69.69a2.28,2.28,0,0,1-1.61.67H62.15a2.3,2.3,0,0,0-1.61.67l-.69.69a2.34,2.34,0,0,1-1.62.66H55.81l2.71-2.73A2.3,2.3,0,0,1,60.14,17ZM53.1,23.1l.69-.68a2.29,2.29,0,0,1,1.62-.67h3.32a2.31,2.31,0,0,0,1.62-.67l.69-.69a2.3,2.3,0,0,1,1.62-.67h2.42l-2.71,2.73a2.35,2.35,0,0,1-1.62.66Zm15.66-8.41L68.07,14a2.28,2.28,0,0,1-.67-1.61V9.05a2.3,2.3,0,0,0-.67-1.61L66,6.75a2.35,2.35,0,0,1-.67-1.62V2.71l2.73,2.71A2.41,2.41,0,0,1,68.76,7ZM62.65,0l.69.69A2.3,2.3,0,0,1,64,2.31V5.64a2.3,2.3,0,0,0,.67,1.61l.69.69A2.34,2.34,0,0,1,66,9.56V12L63.32,9.27a2.3,2.3,0,0,1-.67-1.62Zm8.41,15.66.7-.69a2.28,2.28,0,0,1,1.61-.67H76.7a2.31,2.31,0,0,0,1.62-.67l.69-.69a2.32,2.32,0,0,1,1.62-.66H83L80.33,15a2.28,2.28,0,0,1-1.61.67Zm14.7-6.11-.7.69a2.28,2.28,0,0,1-1.61.67H80.12a2.35,2.35,0,0,0-1.62.67l-.69.69A2.28,2.28,0,0,1,76.2,13H73.78l2.71-2.73a2.37,2.37,0,0,1,1.61-.67ZM76.2,32.66,75.51,32a2.34,2.34,0,0,1-.66-1.62V27a2.3,2.3,0,0,0-.67-1.61l-.69-.69a2.3,2.3,0,0,1-.67-1.62V20.68l2.72,2.71A2.3,2.3,0,0,1,76.2,25Z"/><path class="cls-1" d="M43.38,16.68a2.93,2.93,0,0,0,1.89-.47,2,2,0,0,0,.53-1.57A2.12,2.12,0,0,0,45.27,13a2.75,2.75,0,0,0-1.89-.5,2.84,2.84,0,0,0-1.86.48A2.05,2.05,0,0,0,41,14.64a2,2,0,0,0,.53,1.54A2.81,2.81,0,0,0,43.38,16.68Zm-.25,9.07a19,19,0,0,1-2.47-.16,10.42,10.42,0,0,1-2.12-.45V22.85a12.06,12.06,0,0,0,2.14.46,15.66,15.66,0,0,0,2.29.17,10.32,10.32,0,0,0,2.27-.17c.46-.11.7-.31.7-.6a.5.5,0,0,0-.31-.5,3.85,3.85,0,0,0-1.28-.13H41.42c-1.92,0-2.88-.71-2.88-2.14a2.1,2.1,0,0,1,.37-1.2,2.38,2.38,0,0,1,1.15-.86,3.23,3.23,0,0,1-1.83-3.13,3.5,3.5,0,0,1,1.29-3,6.46,6.46,0,0,1,3.83-.94,9.83,9.83,0,0,1,1.15.08,9.36,9.36,0,0,1,.94.15h4l-.07,1.92h-1.7a2.4,2.4,0,0,1,.7,1.84,3.49,3.49,0,0,1-1,2.65,4.39,4.39,0,0,1-3.09,1q-.36,0-.69,0l-.67-.08a3.76,3.76,0,0,0-1.14.32.69.69,0,0,0-.47.61c0,.35.31.52.93.52h3a3.84,3.84,0,0,1,2.52.74,2.62,2.62,0,0,1,.88,2.14A2.5,2.5,0,0,1,47.25,25,8.88,8.88,0,0,1,43.13,25.75Zm-17.86-4V11h2.84l.11,1a6.37,6.37,0,0,1,1.67-.88A6,6,0,0,1,32,10.78a4.18,4.18,0,0,1,3.11,1,4.25,4.25,0,0,1,1,3.08v6.9H33V15a2.2,2.2,0,0,0-.44-1.54A2.33,2.33,0,0,0,30.94,13a3.42,3.42,0,0,0-1.41.31,3.71,3.71,0,0,0-1.19.8v7.62ZM16.92,20a4.36,4.36,0,0,0,1.77-.34,3.28,3.28,0,0,0,1.18-.86V17.06h-3.1c-1.2,0-1.8.49-1.8,1.48S15.62,20,16.92,20Zm-.84,2a4.73,4.73,0,0,1-1.89-.38,3.37,3.37,0,0,1-1.41-1.11,3.11,3.11,0,0,1-.53-1.85,3.16,3.16,0,0,1,1.12-2.54,5.07,5.07,0,0,1,3.33-.95h3.17v-.3a1.62,1.62,0,0,0-.55-1.4,4.08,4.08,0,0,0-2.24-.41,11.4,11.4,0,0,0-3.54.56V11.46A9.57,9.57,0,0,1,15.37,11a13.24,13.24,0,0,1,2.35-.19,6.15,6.15,0,0,1,3.75,1,3.65,3.65,0,0,1,1.33,3.16v6.83H20.14l-.15-1a4.53,4.53,0,0,1-1.57.89A7.38,7.38,0,0,1,16.08,22ZM5,22a15.37,15.37,0,0,1-2.62-.21,8.59,8.59,0,0,1-2.1-.59v-2.7a12.67,12.67,0,0,0,2.16.66,10.45,10.45,0,0,0,2.27.25A7,7,0,0,0,7,19.11a1.28,1.28,0,0,0,.75-1.34,1.57,1.57,0,0,0-.32-1.05A2.81,2.81,0,0,0,6.36,16c-.52-.2-1.26-.43-2.21-.69A7.12,7.12,0,0,1,.93,13.75,3.59,3.59,0,0,1,0,11.12,3.64,3.64,0,0,1,1.47,8,7.22,7.22,0,0,1,5.76,6.92a15.57,15.57,0,0,1,2.45.18,11.11,11.11,0,0,1,1.84.44v2.69a11.06,11.06,0,0,0-3.88-.7,6.5,6.5,0,0,0-2.25.31,1.23,1.23,0,0,0-.81,1.28A1.38,1.38,0,0,0,3.4,12a2.66,2.66,0,0,0,1,.61,20.05,20.05,0,0,0,2,.61,9.39,9.39,0,0,1,2.77,1.14,3.63,3.63,0,0,1,1.35,1.49,4.59,4.59,0,0,1,.37,1.89,3.71,3.71,0,0,1-1.45,3.06A7.13,7.13,0,0,1,5,22Z"/><path class="cls-1" d="M50.57,38.17a4.2,4.2,0,0,0,1.77-.34A3.25,3.25,0,0,0,53.52,37v-1.7H50.41c-1.2,0-1.79.49-1.79,1.47S49.27,38.17,50.57,38.17Zm-.84,2a5,5,0,0,1-1.9-.37,3.22,3.22,0,0,1-1.4-1.12,3,3,0,0,1-.54-1.85A3.18,3.18,0,0,1,47,34.31a5,5,0,0,1,3.32-1h3.18v-.29A1.63,1.63,0,0,0,53,31.66a4.13,4.13,0,0,0-2.23-.41,11,11,0,0,0-3.54.57V29.66A9.51,9.51,0,0,1,49,29.18a13.2,13.2,0,0,1,2.35-.2,6.21,6.21,0,0,1,3.76,1,3.69,3.69,0,0,1,1.32,3.16V40H53.79l-.16-1a4.43,4.43,0,0,1-1.57.88A7.31,7.31,0,0,1,49.73,40.19ZM36.73,44a9.16,9.16,0,0,1-1.25-.08,5.15,5.15,0,0,1-1.07-.29V41.44a3.78,3.78,0,0,0,.72.18,4.91,4.91,0,0,0,.67.05,2.16,2.16,0,0,0,1.44-.44,4.67,4.67,0,0,0,1-1.45L33.46,29.21h3.2l3.15,7.3,3.13-7.3h3.18l-4.24,10A16,16,0,0,1,40.6,41.7,5.43,5.43,0,0,1,39,43.37,4.11,4.11,0,0,1,36.73,44ZM26.25,40V29.21h2.83l.14,1.11a9,9,0,0,1,1.8-.83A10.69,10.69,0,0,1,33.14,29V31.3c-.4.06-.85.15-1.33.27s-.95.26-1.39.41a7.56,7.56,0,0,0-1.11.47V40Zm-9.35.23a4.08,4.08,0,0,1-3-1.08A4.32,4.32,0,0,1,12.82,36V29.21h3.06v6.67a2.07,2.07,0,0,0,.52,1.58,2.25,2.25,0,0,0,1.57.48,3.38,3.38,0,0,0,1.46-.31,4.21,4.21,0,0,0,1.15-.8V29.21h3.06V40H20.8l-.11-1a5.89,5.89,0,0,1-1.6.9A6.21,6.21,0,0,1,16.9,40.19ZM5,40.19A16.5,16.5,0,0,1,2.37,40a9.58,9.58,0,0,1-2.1-.59V36.7a12.66,12.66,0,0,0,2.16.65,10.45,10.45,0,0,0,2.27.25A6.76,6.76,0,0,0,7,37.31,1.27,1.27,0,0,0,7.78,36a1.52,1.52,0,0,0-.32-1,2.71,2.71,0,0,0-1.1-.7c-.52-.2-1.26-.43-2.21-.69A7.22,7.22,0,0,1,.93,32,3.63,3.63,0,0,1,0,29.32a3.62,3.62,0,0,1,1.47-3.1,7.15,7.15,0,0,1,4.29-1.09,15.57,15.57,0,0,1,2.45.18,10.28,10.28,0,0,1,1.84.43v2.7a10.84,10.84,0,0,0-3.88-.7,6.79,6.79,0,0,0-2.25.3,1.23,1.23,0,0,0-.81,1.28,1.38,1.38,0,0,0,.29.91,2.54,2.54,0,0,0,1,.61,19.65,19.65,0,0,0,2,.62,9.14,9.14,0,0,1,2.77,1.13,3.65,3.65,0,0,1,1.35,1.5A4.54,4.54,0,0,1,10.91,36,3.71,3.71,0,0,1,9.46,39,7.13,7.13,0,0,1,5,40.19Z"/><path class="cls-2" d="M58.33,30.49V29h.32l.44.91.44-.91h.31v1.51h-.31v-1l-.35.72H59l-.36-.72v1Zm-.95,0V29.23h-.46V29h1.24v.25H57.7v1.26Z"/><path class="cls-3" d="M71.06,17h1a2.32,2.32,0,0,1,1.61.67L76,20a2.3,2.3,0,0,0,1.62.67h1a2.37,2.37,0,0,1,1.62.67l1.71,1.71H78.09a2.29,2.29,0,0,1-1.62-.67ZM68.75,18v1a2.28,2.28,0,0,1-.67,1.61l-2.35,2.36a2.34,2.34,0,0,0-.66,1.62v1a2.29,2.29,0,0,1-.67,1.62l-1.7,1.71,0-3.84a2.37,2.37,0,0,1,.67-1.62Zm-6.08,14.7v-1a2.37,2.37,0,0,1,.67-1.62l2.35-2.36a2.3,2.3,0,0,0,.67-1.61v-1A2.33,2.33,0,0,1,67,23.52l1.71-1.71v3.84a2.24,2.24,0,0,1-.67,1.61Zm5.13-17h-1A2.24,2.24,0,0,1,65.21,15l-2.37-2.35A2.39,2.39,0,0,0,61.23,12h-1a2.24,2.24,0,0,1-1.61-.67l-1.71-1.7,3.84,0a2.33,2.33,0,0,1,1.61.67ZM53.09,9.58h1a2.37,2.37,0,0,1,1.61.67L58,12.6a2.3,2.3,0,0,0,1.62.67h1a2.33,2.33,0,0,1,1.62.67L64,15.65H60.12A2.29,2.29,0,0,1,58.5,15Zm17,5.13v-1a2.29,2.29,0,0,1,.67-1.61l2.35-2.37a2.3,2.3,0,0,0,.67-1.61v-1a2.33,2.33,0,0,1,.67-1.61l1.71-1.71V7.68a2.26,2.26,0,0,1-.67,1.61ZM76.18,0V1a2.26,2.26,0,0,1-.67,1.61L73.16,5a2.39,2.39,0,0,0-.67,1.62v1a2.29,2.29,0,0,1-.67,1.62l-1.7,1.71L70.1,7a2.37,2.37,0,0,1,.67-1.62Zm9.59,23.09h-1a2.29,2.29,0,0,1-1.62-.67l-2.36-2.35a2.39,2.39,0,0,0-1.61-.67h-1a2.26,2.26,0,0,1-1.61-.67L74.9,17h3.84a2.37,2.37,0,0,1,1.62.67Z"/><path class="cls-2" d="M70.1,18l.69.69a2.32,2.32,0,0,1,.67,1.61V23.6a2.27,2.27,0,0,0,.67,1.62l.68.69a2.3,2.3,0,0,1,.67,1.62V30l-2.72-2.71a2.32,2.32,0,0,1-.67-1.62Zm-2.31-1-.69.69a2.28,2.28,0,0,1-1.61.67H62.15a2.3,2.3,0,0,0-1.61.67l-.69.69a2.34,2.34,0,0,1-1.62.66H55.81l2.71-2.73A2.3,2.3,0,0,1,60.14,17ZM53.1,23.1l.69-.68a2.29,2.29,0,0,1,1.62-.67h3.32a2.31,2.31,0,0,0,1.62-.67l.69-.69a2.3,2.3,0,0,1,1.62-.67h2.42l-2.71,2.73a2.35,2.35,0,0,1-1.62.66Zm15.66-8.41L68.07,14a2.28,2.28,0,0,1-.67-1.61V9.05a2.3,2.3,0,0,0-.67-1.61L66,6.75a2.35,2.35,0,0,1-.67-1.62V2.71l2.73,2.71A2.41,2.41,0,0,1,68.76,7ZM62.65,0l.69.69A2.3,2.3,0,0,1,64,2.31V5.64a2.3,2.3,0,0,0,.67,1.61l.69.69A2.34,2.34,0,0,1,66,9.56V12L63.32,9.27a2.3,2.3,0,0,1-.67-1.62Zm8.41,15.66.7-.69a2.28,2.28,0,0,1,1.61-.67H76.7a2.31,2.31,0,0,0,1.62-.67l.69-.69a2.32,2.32,0,0,1,1.62-.66H83L80.33,15a2.28,2.28,0,0,1-1.61.67Zm14.7-6.11-.7.69a2.28,2.28,0,0,1-1.61.67H80.12a2.35,2.35,0,0,0-1.62.67l-.69.69A2.28,2.28,0,0,1,76.2,13H73.78l2.71-2.73a2.37,2.37,0,0,1,1.61-.67ZM76.2,32.66,75.51,32a2.34,2.34,0,0,1-.66-1.62V27a2.3,2.3,0,0,0-.67-1.61l-.69-.69a2.3,2.3,0,0,1-.67-1.62V20.68l2.72,2.71A2.3,2.3,0,0,1,76.2,25Z"/><path class="cls-4" d="M32.48,50a1.1,1.1,0,0,1-.83-.3,1.22,1.22,0,0,1-.29-.87v-1.9h.69v1.9a.65.65,0,0,0,.17.49.68.68,0,0,0,.5.16,1.15,1.15,0,0,0,.85-.35v-2.2h.68v3h-.62l0-.31A1.73,1.73,0,0,1,32.48,50ZM26,46.93h.63l0,.32a1.68,1.68,0,0,1,1.06-.39,1.13,1.13,0,0,1,.5.1.68.68,0,0,1,.28.3A2.16,2.16,0,0,1,29,47a1.73,1.73,0,0,1,.63-.11,1,1,0,0,1,.77.27,1.2,1.2,0,0,1,.25.82v2h-.68V48a.67.67,0,0,0-.15-.49.68.68,0,0,0-.47-.14,1.16,1.16,0,0,0-.42.08.76.76,0,0,0-.33.23,1.23,1.23,0,0,1,0,.31v1.93H28V48a.84.84,0,0,0-.11-.49.53.53,0,0,0-.43-.15,1.12,1.12,0,0,0-.78.36v2.19H26Zm-1.5.53H24l.07-.53h1.08v3h-.69Zm-.06-1.73h.76v.57H24.4Zm-5.83,1.2h.63l0,.32a1.64,1.64,0,0,1,1.06-.39,1.12,1.12,0,0,1,.49.1.76.76,0,0,1,.29.3,1.92,1.92,0,0,1,.5-.29,1.81,1.81,0,0,1,.63-.11,1,1,0,0,1,.77.27,1.15,1.15,0,0,1,.25.82v2h-.68V48a.67.67,0,0,0-.15-.49.66.66,0,0,0-.47-.14,1.2,1.2,0,0,0-.42.08.76.76,0,0,0-.33.23.9.9,0,0,1,0,.31v1.93h-.64V48a.76.76,0,0,0-.12-.49.52.52,0,0,0-.43-.15,1.12,1.12,0,0,0-.78.36v2.19h-.68Zm-1.28,1.32V48a.66.66,0,0,0-.18-.49.83.83,0,0,0-.57-.16.86.86,0,0,0-.66.2,1,1,0,0,0-.19.66ZM16.68,50a1.74,1.74,0,0,1-1.22-.39A1.56,1.56,0,0,1,15,48.43a1.67,1.67,0,0,1,.38-1.16,1.44,1.44,0,0,1,1.11-.41,1.42,1.42,0,0,1,1,.35,1.27,1.27,0,0,1,.36.94v.56H15.69a.81.81,0,0,0,.32.6,1.54,1.54,0,0,0,.81.16,2.49,2.49,0,0,0,.47,0,3.16,3.16,0,0,0,.42-.11v.5A2.5,2.5,0,0,1,16.68,50Zm-3.79-.52a1.06,1.06,0,0,0,.78-.32v-1.5a1.08,1.08,0,0,0-.75-.27.79.79,0,0,0-.66.29,1.39,1.39,0,0,0-.22.85,1.09,1.09,0,0,0,.2.74A.86.86,0,0,0,12.89,49.48Zm-.18.52a1.39,1.39,0,0,1-1-.35,1.49,1.49,0,0,1-.36-1.12,2.06,2.06,0,0,1,.18-.9,1.35,1.35,0,0,1,1.25-.77,1.87,1.87,0,0,1,.49.07,1.42,1.42,0,0,1,.41.2V45.66h.69v4.28h-.59l0-.3a1.18,1.18,0,0,1-.45.27A1.66,1.66,0,0,1,12.71,50Zm-3.59-.5a1.25,1.25,0,0,0,.53-.1.93.93,0,0,0,.39-.28v-.53H9.09a.64.64,0,0,0-.44.12.4.4,0,0,0-.14.36.37.37,0,0,0,.15.33A.83.83,0,0,0,9.12,49.5Zm-.19.5a1.21,1.21,0,0,1-.76-.24.81.81,0,0,1-.3-.68.87.87,0,0,1,.3-.7,1.36,1.36,0,0,1,.9-.26h1V48a.68.68,0,0,0-.07-.35.39.39,0,0,0-.24-.18,1.69,1.69,0,0,0-.51-.06,3.22,3.22,0,0,0-1,.16v-.51a2.37,2.37,0,0,1,.51-.13,3.11,3.11,0,0,1,.62-.06,1.62,1.62,0,0,1,1,.28,1,1,0,0,1,.34.86v1.94h-.59l0-.31a1.19,1.19,0,0,1-.46.28A2.13,2.13,0,0,1,8.93,50ZM4.85,45.66h.69v2.47l1.27-1.2H7.6L6.38,48.14l1.29,1.8H6.94l-1-1.43-.4.38v1H4.85ZM2.94,48.35l-.71-1.87-.71,1.87Zm-1.09-2.5h.77l1.55,4.09H3.46l-.4-1.06H1.41L1,49.94H.29Z"/></svg>