<?xml version="1.0" encoding="UTF-8"?>
<!DOCTYPE svg PUBLIC "-//W3C//DTD SVG 1.1//EN" "http://www.w3.org/Graphics/SVG/1.1/DTD/svg11.dtd">
<!-- Creator: CorelDRAW 2019 (64-Bit) -->
<svg xmlns="http://www.w3.org/2000/svg" xml:space="preserve" width="744px" height="449px" version="1.1" style="shape-rendering:geometricPrecision; text-rendering:geometricPrecision; image-rendering:optimizeQuality; fill-rule:evenodd; clip-rule:evenodd" viewBox="0 0 744 449.62" xmlns:xlink="http://www.w3.org/1999/xlink">
 <defs>
  <style type="text/css">
   <![CDATA[
    .fil0 {fill:#1A9F92}
   ]]>
  </style>
 </defs>
 <g id="Layer_x0020_1">
  <metadata id="CorelCorpID_0Corel-Layer"/>
  <g id="_2694568389392">
   <g>
    <path class="fil0" d="M221.47 90.58c0,12.89 -2.66,24.98 -7.6,36.19 -27.29,-11.02 -62.53,-25.01 -107.99,-43.22l-2.44 -0.95 -0.38 0 -0.19 -0.19 -0.57 0c-2.28,-0.38 -4.75,-0.76 -7.22,-0.76 -13.27,0 -25.58,7.19 -32.01,18.94l-0.57 1.14 -10.8 32.39c-7.03,-12.86 -11.2,-27.68 -11.2,-43.57 -0.19,-50.02 40.36,-90.55 90.36,-90.55 49.99,0 90.61,40.56 90.61,90.58l0 0z"/>
    <path class="fil0" d="M246.61 154.98c29.22,11.68 51.98,20.77 54.87,22.04 -2.95,-1.24 -25.65,-10.33 -54.87,-22.04z"/>
    <path class="fil0" d="M292.52 435.18c-3.23,-8.14 -10.71,-26.53 -17.48,-43.22 -6.71,-16.56 -12.79,-31.37 -13.2,-32.55 0.03,0.04 0.09,0.07 0.16,0.16 0.79,2.06 24.28,59.49 30.71,75.8 0.66,1.64 1.17,2.88 1.33,3.54 -0.23,-0.57 -0.8,-1.9 -1.52,-3.73z"/>
    <path class="fil0" d="M294.13 439.33c0.09,0.19 0.22,0.69 0.28,1.23 -0.09,-0.51 -0.19,-0.98 -0.28,-1.23z"/>
    <path class="fil0" d="M294.6 442.11l0 0.1c0,3.8 -2.85,7.03 -6.64,7.41l-1.68 -0.04c-1.71,-0.19 -3.04,-0.95 -4.37,-2.05l0 -0.19c1.33,1.14 2.66,1.86 4.37,2.05l1.68 0.04c3.76,-0.42 6.61,-3.58 6.64,-7.32z"/>
    <path class="fil0" d="M310.15 183.22c0.06,0.06 0.16,0.19 0.29,0.41l-0.29 -0.41z"/>
    <path class="fil0" d="M310.66 183.85c5.7,7.44 58.92,78.46 87.92,117.18l-87.92 -117.18z"/>
    <path class="fil0" d="M398.55 301.03c1.96,2.6 3.83,5.04 5.51,7.35l-5.51 -7.35z"/>
    <path class="fil0" d="M415.99 349.5c2.41,-3.61 3.83,-7.94 3.83,-12.63 0,-3.99 -1.14,-7.79 -2.66,-11.02 1.9,3.23 2.85,7.03 2.85,11.02 -0.06,4.69 -1.55,9.02 -4.02,12.63z"/>
    <path class="fil0" d="M419.82 336.87c0,4.69 -1.42,9.02 -3.83,12.63 -3.32,4.82 -8.35,8.27 -14.21,9.44 -1.43,0.32 -2.98,0.47 -4.5,0.47l-135.47 0 0.03 0.04c0.41,1.14 6.49,15.95 13.2,32.54 6.77,16.66 14.25,35.08 17.48,43.22 0.72,1.84 1.29,3.14 1.52,3.74 0,0.03 0,0.03 0,0.03 0,0.09 0,0.16 0,0.22 0.03,0 0.06,0.03 0.09,0.1 0,0 0,0 0.03,0.03 0.07,0.28 0.19,0.79 0.29,1.26 0.03,0.29 0.09,0.54 0.12,0.83 0.03,0.12 0.03,0.25 0.03,0.38 0,0.09 0,0.19 0,0.28l0 0.07c0,3.73 -2.85,6.93 -6.61,7.31l-1.68 0c-1.71,-0.19 -3.04,-0.95 -4.37,-2.06l-1.55 -2.09 -170.12 -230.36 -4.75 -6.46c-1.32,-1.33 -3,-2.06 -5.09,-2.06 -4.18,0 -7.6,3.2 -7.6,7.38 0,1.14 0.19,2.47 0.76,3.42 0,0 45.27,112.74 45.46,113.12 0.61,2.25 0.99,4.37 0.99,6.81 0,2.28 -0.19,4.37 -0.76,6.27 -0.38,0.95 -0.8,2.05 -1.17,3 -3.39,7.03 -10.04,12.13 -17.99,13.08l-97.58 0c-12.5,0 -22.54,-10.04 -22.54,-22.54 0,-1.52 0.19,-3.01 0.38,-4.56l61.39 -183.57 13.81 -41.29c3.8,-6.8 11.2,-11.55 19.72,-11.55 1.87,0 3.8,0.19 5.48,0.79l0.19 0c0,0 54.2,21.75 106.51,42.61 13.51,5.42 26.91,10.8 39.13,15.71 29.22,11.71 51.92,20.8 54.87,22.03 0.22,0.07 0.31,0.16 0.31,0.16 3.23,1.33 6.08,3.42 8.33,6.05l0.03 0.03 0.29 0.41 0.16 0.22 87.95 117.18 5.51 7.35 1.65 2.21 1.58 2.09 3.51 4.69 1.21 1.61 5.16 6.87c1.52,3.07 2.66,6.87 2.66,10.86l-0.01 0z"/>
    <g>
     <path class="fil0" d="M294.04 438.98c0,0 0,0.09 0.06,0.28 -0.03,-0.03 -0.06,-0.09 -0.06,-0.09 0,-0.03 0,-0.13 -0.04,-0.22 0.04,0 0.04,0 0.04,0.03z"/>
     <path class="fil0" d="M415.99 349.5c-3.26,4.82 -8.29,8.27 -14.21,9.44 5.85,-1.17 10.89,-4.62 14.21,-9.44z"/>
    </g>
   </g>
   <g>
    <path class="fil0" d="M564.96 286.66c0,-4.09 -3.33,-7.41 -7.41,-7.41 -4.09,0 -7.38,3.32 -7.38,7.41 0,4.08 3.29,7.37 7.38,7.37 4.08,0 7.41,-3.29 7.41,-7.37z"/>
    <g>
     <path class="fil0" d="M664.4 237.01l0 22.36c0,2.05 2.44,3.41 4.18,2.24l8.33 -5.66 -12.51 -18.94z"/>
     <g>
      <g>
       <g>
        <path class="fil0" d="M409.41 256.33l-8.17 0c-1.52,0 -2.85,-1.33 -2.85,-2.82l0 -71.81c0,-1.52 1.36,-2.85 2.85,-2.85l23.3 0c8.17,0 14.79,1.71 20.3,4.91 5.47,3.42 8.13,9.28 8.13,18.02 0,5.88 -1.33,10.82 -4.14,14.4 -2.28,2.85 -5.13,5.13 -8.52,6.65 -1.55,0.76 -1.9,2.44 -1.17,3.99l20.1 25.17c1.14,1.9 -0.38,4.18 -2.47,4.18l-8.89 0c-0.95,0 -2.06,-0.57 -2.44,-1.52l-20.68 -27.48c-0.56,-0.95 -1.51,-1.52 -2.43,-1.52l-7.41 0c-1.52,0 -2.85,1.33 -2.85,2.82l0 24.66c0.19,1.9 -1.14,3.2 -2.66,3.2l0 0zm2.85 -44.11c0,1.52 1.33,2.82 2.82,2.82l8.16 0c10.99,0 16.28,-4.37 16.28,-13.27 0,-4.36 -1.33,-7.56 -4.15,-9.27 -2.85,-1.68 -6.84,-2.63 -12.12,-2.63l-8.17 0c-1.52,0 -2.85,1.33 -2.85,2.82l0.03 19.53 0 0 0 0z"/>
        <path class="fil0" d="M484.79 257.85c-6.24,0 -10.79,-2.06 -13.64,-6.05 -2.82,-3.99 -4.37,-9.66 -4.37,-17.07l0 -33.53c0,-1.51 1.36,-2.85 2.85,-2.85l7.97 0c1.52,0 2.85,1.37 2.85,2.85l0 31.63c0,4.75 0.76,8.17 2.06,10.23 1.52,1.9 3.8,3.04 6.84,3.04 2.44,0 4.75,-0.57 6.62,-1.9 1.68,-1.14 3.61,-2.82 5.48,-5.29 0.38,-0.57 0.57,-1.14 0.57,-1.86l0 -35.81c0,-1.52 1.36,-2.85 2.85,-2.85l7.97 0c1.52,0 2.82,1.36 2.82,2.85l0 52.3c0,1.52 -1.33,2.82 -2.82,2.82l-5.88 -0.57c-1.52,0 -2.63,-4.94 -2.82,-6.24l-0.76 -1.71 -0.38 0c-2.47,3.04 -5.32,5.51 -8.33,7.22 -2.47,1.84 -5.89,2.79 -9.88,2.79l0 0z"/>
        <path class="fil0" d="M533.3 253.51l0 -52.5c0,-1.51 1.33,-2.85 2.85,-2.85l5.85 0c1.52,0 2.66,1.18 2.85,2.47l0.57 5.48 0.57 0c2.44,-2.63 5.1,-4.75 7.98,-6.62 2.82,-1.9 6.05,-2.66 9.85,-2.66 4.37,0 7.75,0.95 10.22,2.85 2.66,1.87 4.56,4.37 5.86,7.57 1.71,-1.87 3.61,-3.58 5.51,-5.1 4.53,-3.57 10.42,-5.85 16.27,-5.09 4.56,0.57 8.17,2.47 10.42,5.85 2.85,3.99 4.37,9.69 4.37,17.07l0 33.75c0,1.52 -1.33,2.82 -2.82,2.82l-8.17 0c-1.52,0 -2.85,-1.33 -2.85,-2.85l0 -32.01c0,-4.75 -0.76,-8.14 -2.24,-10.23 -1.56,-1.87 -3.61,-3.04 -6.65,-3.04 -3.39,0 -7.19,2.09 -11.37,6.27 -0.57,0.57 -0.76,1.33 -0.76,2.06l0 36.57c0,1.55 -1.33,2.85 -2.85,2.85l-7.98 0c-1.52,0 -2.82,-1.33 -2.82,-2.85l0 -31.63c0,-4.75 -0.75,-8.14 -2.27,-10.23 -1.52,-1.87 -3.8,-3.01 -6.81,-3.01 -3.42,0 -7.22,2.06 -11.4,6.24 -0.57,0.57 -0.76,1.33 -0.76,2.09l0 36.57c0,1.52 -1.33,2.82 -2.82,2.82l-7.78 0c-1.49,0.16 -2.82,-1.14 -2.82,-2.66z"/>
        <path class="fil0" d="M656.27 196.84c-3.04,0 -6.05,0.38 -8.71,0.95 -2.47,0.56 -4.37,2.27 -5.1,4.75l-2.27 6.45c0,0 -0.2,0.38 -0.2,0.57 0,0.76 0.76,1.52 1.56,1.52 0.19,0 0.38,0 0.57,-0.19 1.32,-0.57 2.43,-1.14 3.38,-1.52 2.66,-1.14 5.51,-1.71 8.33,-1.71 3.99,0 6.65,1.14 8.17,3.42 1.52,2.28 2.25,4.91 2.47,7.98 -11.94,1.33 -20.68,3.61 -26.15,7 -3.23,1.9 -5.51,4.56 -6.65,7.6l-0.95 2.43 0 0c-0.38,1.37 -0.57,2.85 -0.57,4.37 0,5.13 1.52,9.09 4.75,12.32 3.23,3.23 7.41,4.75 12.5,4.75 3.39,0 6.62,-0.76 9.66,-2.25 0.76,-0.38 1.33,-0.79 2.06,-1.17l0 0c1.36,-0.76 2.47,-1.52 3.61,-2.44 0,0 0,0 0.19,0 0.76,-0.57 1.71,-1.33 2.47,-1.9l0.38 0 0.57 3.42 0 0.38 0.19 0.57 0 0c0.38,0.95 1.33,1.71 2.66,1.71l6.62 0c0.19,0 0.56,-0.19 0.75,-0.19 0.95,-0.38 1.56,-1.36 1.56,-2.47l0 -31.63c-0.07,-16.37 -7.25,-24.72 -21.85,-24.72l0 0zm8.13 42.64c0,0.79 -0.38,1.71 -0.95,2.28 -1.9,1.52 -3.6,2.85 -5.31,3.8 -1.87,1.14 -4.15,1.68 -6.43,1.68 -2.44,0 -4.56,-0.57 -6.05,-1.68 -1.55,-1.14 -2.47,-3.04 -2.47,-5.7 0,-2.82 1.52,-5.48 4.56,-7.38 2.66,-1.7 7.03,-3.04 13.27,-4.17 1.68,-0.19 3.23,1.14 3.23,2.85l0 8.32 0.15 0 0 0z"/>
        <path class="fil0" d="M694.32 253.51l0 -72.38c0,-1.55 1.36,-2.85 2.85,-2.85l7.98 0c1.52,0 2.82,1.33 2.82,2.85l0 13.08 -0.57 11.17c2.47,-2.28 5.13,-4.37 8.17,-6.04 3.04,-1.71 6.43,-2.66 10.42,-2.66 6.26,0 10.82,2.06 13.64,6.04 2.85,3.99 4.37,9.66 4.37,17.07l0 33.72c0,1.55 -1.33,2.85 -2.82,2.85l-7.98 0c-1.51,0 -2.85,-1.33 -2.85,-2.85l0 -31.82c0,-4.75 -0.75,-8.14 -2.24,-10.23 -1.55,-1.87 -3.8,-3.01 -7.03,-3.01 -2.44,0 -4.75,0.57 -6.62,1.87 -1.71,1.14 -3.61,2.66 -5.7,4.56 -0.57,0.57 -0.95,1.33 -0.95,2.06l0 36.57c0,1.55 -1.33,2.85 -2.85,2.85l-7.76 0c-1.52,-0.03 -2.88,-1.33 -2.88,-2.85l0 0z"/>
        <g>
         <path class="fil0" d="M481.59 353.91l0 -71.78c0,-1.55 1.33,-2.85 2.82,-2.85l8.17 0c1.52,0 2.85,1.33 2.85,2.85l0 32.39 0.38 0 26.72 -34.1c0.57,-0.79 1.33,-1.17 2.25,-1.17l7.98 0c2.44,0 3.8,2.66 2.25,4.56l-18.93 24.06c-0.76,0.98 -0.76,2.28 -0.19,3.23l24.25 41.29c1.14,1.9 -0.19,4.37 -2.44,4.37l-8.52 0c-0.95,0 -1.9,-0.57 -2.46,-1.52l-17.99 -31.44c-0.98,-1.71 -3.42,-1.9 -4.75,-0.38l-7.98 9.84c-0.38,0.57 -0.57,1.14 -0.57,1.68l0 18.78c0,1.52 -1.33,2.81 -2.85,2.81l-8.17 0c-1.48,0.23 -2.81,-1.1 -2.81,-2.62l-0.01 0z"/>
         <path class="fil0" d="M551.12 353.91l0 -52.47c0,-1.52 1.33,-2.85 2.85,-2.85l7.95 0c1.55,0 2.85,1.36 2.85,2.85l0 52.47c0,1.55 -1.33,2.85 -2.85,2.85l-7.95 0c-1.52,0 -2.85,-1.33 -2.85,-2.85z"/>
         <path class="fil0" d="M615.71 328.32c-3.61,-2.47 -7.38,-4.37 -11.37,-5.85 -3.22,-1.14 -6.07,-2.28 -8.51,-3.42 -2.47,-1.14 -3.61,-2.85 -3.61,-5.1 0,-1.9 0.76,-3.42 2.09,-4.56 1.33,-1.33 3.58,-1.9 6.43,-1.9 2.24,0 4.56,0.38 6.61,1.36 1.36,0.57 4.75,2.44 4.91,2.82 0.22,0 0.6,0.19 0.79,0.19 0.57,0 1.14,-0.19 1.52,-0.76 0.19,-0.19 3.04,-4.18 3.04,-4.18 1.14,-1.52 0.76,-3.77 -0.98,-4.91 -1.68,-0.95 -3.39,-1.86 -5.29,-2.62 -3.23,-1.56 -6.8,-2.09 -10.98,-2.09 -6.65,0 -11.94,1.67 -15.74,5.09 -3.99,3.42 -5.86,8.9 -5.29,14.03 0.38,3.99 2.09,7.03 5.1,9.28 3.42,2.47 7.22,4.56 11.02,5.88 3.01,1.14 5.86,2.44 8.52,3.77 2.62,1.36 3.95,3.23 3.95,5.7 0,2.06 -0.76,3.77 -2.25,5.1 -1.51,1.33 -3.79,1.87 -7.02,1.87 -3.01,0 -5.86,-0.57 -8.33,-1.68 -1.68,-0.76 -3.39,-1.71 -5.1,-2.85 -1.52,-0.95 -3.39,-0.76 -4.56,0.76l-2.44 3.42c-1.14,1.52 -0.75,3.61 0.76,4.75 2.25,1.52 4.75,2.66 7.6,3.8 3.96,1.52 7.95,2.25 11.91,2.25 7.41,0 12.88,-1.68 16.87,-5.29 3.8,-3.61 5.86,-7.79 5.86,-12.7 -0.19,-5.89 -1.9,-9.69 -5.51,-12.16l0 0z"/>
         <path class="fil0" d="M647.37 358.08c-5.1,0 -9.09,-1.55 -12.31,-4.75 -3.2,-3.22 -4.75,-7.21 -4.75,-12.31 0,-6.27 2.65,-10.99 8.16,-14.6 5.48,-3.42 14.22,-5.85 26.16,-7.03 -0.19,-3 -0.95,-5.66 -2.47,-7.94 -1.52,-2.28 -4.18,-3.42 -8.14,-3.42 -2.85,0 -5.7,0.57 -8.33,1.68 -1.9,0.76 -3.8,1.71 -5.51,2.65 -1.33,0.76 -3,0.39 -3.76,-1.14l-2.28 -4.17c-0.76,-1.33 -0.38,-3.04 1.14,-3.8 2.66,-1.33 5.51,-2.66 8.51,-3.8 4.18,-1.52 8.52,-2.25 13.08,-2.25 14.41,0 21.59,8.33 21.59,25.17l0 31.63c0,1.55 -1.33,2.85 -2.85,2.85l-8.32 0 -0.95 -6.46 -0.39 0c-2.65,2.28 -5.28,3.99 -8.32,5.51 -3.64,1.42 -6.84,2.18 -10.26,2.18l0 0zm4.34 -10.6c2.47,0 4.56,-0.57 6.43,-1.68 1.71,-0.95 3.41,-2.28 5.31,-3.8 0.57,-0.57 0.95,-1.33 0.95,-2.09l0 -8.52c0,-1.67 -1.51,-3 -3.22,-2.81 -6.24,0.95 -10.61,2.24 -13.27,4.18 -3.01,2.05 -4.56,4.55 -4.56,7.37 0,2.66 0.79,4.56 2.47,5.7 1.36,1.08 3.45,1.65 5.89,1.65z"/>
         <path class="fil0" d="M694.32 353.91l0 -72.35c0,-1.55 1.36,-2.85 2.85,-2.85l7.98 0c1.52,0 2.82,1.33 2.82,2.85l0 13.08 -0.57 11.17c2.47,-2.28 5.13,-4.37 8.17,-6.08 3.04,-1.68 6.43,-2.63 10.42,-2.63 6.26,0 10.82,2.06 13.64,6.05 2.85,3.99 4.37,9.66 4.37,17.07l0 33.72c0,1.55 -1.33,2.85 -2.82,2.85l-7.98 0c-1.51,0 -2.85,-1.33 -2.85,-2.85l0 -31.82c0,-4.75 -0.75,-8.14 -2.24,-10.23 -1.55,-1.87 -3.8,-3.01 -7.03,-3.01 -2.44,0 -4.75,0.57 -6.62,1.87 -1.71,1.14 -3.61,2.66 -5.7,4.56 -0.57,0.57 -0.95,1.33 -0.95,2.06l0 36.57c0,1.55 -1.33,2.85 -2.85,2.85l-7.76 0c-1.52,-0.04 -2.88,-1.37 -2.88,-2.89l0 0.01z"/>
        </g>
       </g>
       <path class="fil0" d="M502.43 243.06l0 16.31c0,2.05 2.47,3.42 4.18,2.24l8.32 -5.66 -12.5 -12.89 0 0z"/>
      </g>
      <path class="fil0" d="M707.97 192.12l0 -16.69c0,-2.06 -2.44,-3.38 -4.15,-2.25l-8.32 5.67 12.47 13.27z"/>
      <path class="fil0" d="M647.37 257.85c-5.1,0 -9.09,-1.52 -12.31,-4.72 -3.2,-3.23 -4.75,-7.22 -4.75,-12.32 0,-6.27 2.65,-11.02 8.16,-14.59 5.48,-3.42 14.22,-5.89 26.16,-7.03 -0.19,-3.01 -0.95,-5.67 -2.47,-7.95 -1.52,-2.28 -4.18,-3.42 -8.14,-3.42 -2.85,0 -5.7,0.57 -8.33,1.68 -1.9,0.76 -3.8,1.71 -5.51,2.66 -1.33,0.76 -3,0.38 -3.76,-1.14l-2.28 -4.18c-0.76,-1.33 -0.38,-3.04 1.14,-3.8 2.66,-1.33 5.51,-2.66 8.51,-3.8 4.18,-1.52 8.52,-2.25 13.08,-2.25 14.41,0 21.59,8.33 21.59,25.17l0 31.63c0,1.52 -1.33,2.85 -2.85,2.85l-8.32 0 -0.95 -6.46 -0.39 0c-2.65,2.28 -5.28,3.99 -8.32,5.51 -3.64,1.39 -6.84,2.15 -10.26,2.15l0 0.01zm4.34 -10.8c2.47,0 4.56,-0.57 6.43,-1.68 1.71,-0.95 3.41,-2.28 5.31,-3.8 0.57,-0.57 0.95,-1.33 0.95,-2.09l0 -8.48c0,-1.71 -1.51,-3.04 -3.22,-2.85 -6.24,0.95 -10.61,2.24 -13.27,4.18 -3.01,2.05 -4.56,4.55 -4.56,7.37 0,2.66 0.79,4.56 2.47,5.7 1.36,1.08 3.45,1.65 5.89,1.65l0 0z"/>
     </g>
     <path class="fil0" d="M664.4 337.44l0 22.35c0,2.06 2.44,3.42 4.18,2.25l8.33 -5.67 -12.51 -18.93z"/>
    </g>
   </g>
  </g>
 </g>
</svg>